<svg width="80" height="29" viewBox="0 0 80 29" fill="none" xmlns="http://www.w3.org/2000/svg">
<g clip-path="url(#clip0_62_6)">
<path d="M20.4341 11.3302H1.37514L0 15.1084H19.059L20.4341 11.3302ZM22.494 5.66335H3.43469L2.05954 9.44122H21.1186L22.494 5.66335ZM23.1822 3.77404H4.12276L5.49824 -0.00382805H24.5573L23.1822 3.77404Z" fill="#54A2DE"/>
<path d="M40.1581 16.2518V16.3303C41.0208 16.6439 41.8442 17.1932 42.276 17.5462C43.6092 18.6442 44.1974 20.0954 44.1974 21.9776C44.1974 25.0762 42.5501 27.3117 39.8444 28.0175C39.0205 28.2528 38.1578 28.3315 36.5497 28.3315H28.3535V5.66325H35.6087C37.0988 5.66325 38.1186 5.74133 39.0205 5.97694C41.6482 6.68273 43.3739 8.48694 43.3739 11.3495C43.3739 12.8791 42.8249 14.1735 41.9226 15.0362C41.5305 15.4283 40.9816 15.8992 40.1581 16.2518ZM32.9026 18.6442V24.6053H36.0403C36.9811 24.6053 37.8441 24.5268 38.4719 23.9386C39.0989 23.3504 39.3738 22.6054 39.3738 21.6251C39.3738 20.8797 39.1774 20.1738 38.7853 19.6637C38.1186 18.8403 37.2948 18.6442 35.8832 18.6442H32.9026ZM32.8633 14.7225H35.4125C36.1968 14.7225 36.589 14.7225 36.9811 14.6046C38.0402 14.2908 38.7068 13.3501 38.7068 12.0557C38.7068 10.5263 38.001 9.85939 36.9811 9.54536C36.5497 9.42808 36.1184 9.38887 35.2554 9.38887H32.8633V14.7225ZM51.0211 28.3315V9.46729H44.4718V5.66325H62.6692L61.3751 9.46729H55.5706V28.3315H51.0211ZM64.0812 28.3315V5.66325H78.827L77.533 9.46729H68.5914V14.4869H72.2389C75.1803 14.4869 76.7092 15.1934 77.7684 16.0953C78.5921 16.8011 80.0038 18.3696 80.0038 21.4682C80.0038 24.5268 78.5526 26.2134 77.337 27.0764C75.9249 28.0567 74.4349 28.3315 71.4151 28.3315H64.0812ZM68.5914 24.5268H72.0033C73.2973 24.5268 74.0816 24.2131 74.6309 23.5073C74.9054 23.1544 75.2976 22.527 75.2976 21.3506C75.2976 20.1738 74.9054 19.35 74.1212 18.7618C73.6506 18.4092 73.0232 18.2131 71.9641 18.2131H68.5914V24.5268Z" fill="#283C7B"/>
</g>
<defs>
<clipPath id="clip0_62_6">
<rect width="80" height="28.3312" fill="white"/>
</clipPath>
</defs>
</svg>
